# xmcd
#
# Track frame offsets: 
#        150
#        14817
#        28659
#        42612
#        55254
#        69770
#        82299
#        95953
#        107808
#        119475
#        130992
#        144158
#        162688
#        175555
#        190222
#        202451
#        214193
#        228523
#        242739
#        255719
#
# Disc length: 3558 seconds
#
# Revision: 0
# Processed by: cddbd v1.5.2PL0 Copyright (c) Steve Scherf et al.
# Submitted via: ExactAudioCopy v0.99pb5
#
DISCID=390de414
DTITLE=Johnny Otis - Jukebox Hits 1946-1954
DYEAR=1900
DGENRE=R&B
TTITLE0=Drifting Blues
TTITLE1=That's Your Last Boogie
TTITLE2=If It's So Baby
TTITLE3=Double Crossing Blues
TTITLE4=Mistrustin' Blues
TTITLE5=Misery
TTITLE6=Cry Baby
TTITLE7=Cupid Boogie
TTITLE8=Deceivin' Blues
TTITLE9=Dreamin' Blues
TTITLE10=Wedding Boogie
TTITLE11=Far Away Blues (Xmas Blues)
TTITLE12=Rockin' Blues
TTITLE13=Gee Baby
TTITLE14=Mambo Boogie
TTITLE15=All Night Long
TTITLE16=Sunset To Dawn
TTITLE17=Call Operator 210
TTITLE18=Hound Dog
TTITLE19=Please Forgive Me
EXTD=
EXTT0=
EXTT1=
EXTT2=
EXTT3=
EXTT4=
EXTT5=
EXTT6=
EXTT7=
EXTT8=
EXTT9=
EXTT10=
EXTT11=
EXTT12=
EXTT13=
EXTT14=
EXTT15=
EXTT16=
EXTT17=
EXTT18=
EXTT19=
PLAYORDER=
